<svg id="unicorns-of-the-sea" xmlns="http://www.w3.org/2000/svg" width="1920" height="1080" viewBox="0 0 1920 1080"><title>unicorns-of-the-sea</title><rect id="bg" width="1920" height="1080" fill="#78a2b3"/><g id="rainbow"><path id="rainbow-violet" d="M186.8,1080A1315.5,1315.5,0,0,1,342.1,917.4c72.4-64.3,154.6-124.1,244.3-177.9,173.7-104.2,373.5-185.4,593.8-241.2s456.1-84.7,696.8-84.7c14.4,0,28.7.1,43,.3" fill="none" stroke="#ff00e6" stroke-linecap="round" stroke-linejoin="round" stroke-width="12.37"/><path id="rainbow-indigo" d="M267.9,1080a1284.5,1284.5,0,0,1,118-119c69.4-61.7,148.4-119.2,234.8-170.9,168.2-100.9,362.1-179.6,576.1-233.9,216.2-54.8,445.1-82.6,680.2-82.6,14.4,0,28.7.1,43,.3" fill="none" stroke="#9500ff" stroke-linecap="round" stroke-linejoin="round" stroke-width="12.37"/><path id="rainbow-blue" d="M351.7,1080q36.8-38.7,78-75.4C496.2,945.6,572,890.4,655,840.7c162.7-97.7,350.6-173.9,558.4-226.6,210.8-53.4,434.1-80.5,663.6-80.5,14.4,0,28.7.1,43,.3" fill="none" stroke="#0040ff" stroke-linecap="round" stroke-linejoin="round" stroke-width="12.37"/><path id="rainbow-green" d="M439,1080q16.8-16.1,34.4-31.7C537.1,991.8,609.7,939,689.3,891.2c157.3-94.3,339.2-168,540.7-219.1,205.4-52.1,423.1-78.5,647-78.5,14.4,0,28.7.1,43,.3" fill="none" stroke="#2bff00" stroke-linecap="round" stroke-linejoin="round" stroke-width="12.37"/><path id="rainbow-yellow" d="M530.9,1080c57.4-49.4,122.1-95.9,192.6-138.2,151.9-91,327.9-162.3,523.1-211.8,200-50.7,412.1-76.4,630.4-76.4,14.4,0,28.7.1,43,.3" fill="none" stroke="#fff700" stroke-linecap="round" stroke-linejoin="round" stroke-width="12.37"/><path id="rainbow-orange" d="M628.5,1080a1405,1405,0,0,1,129.3-87.6c146.4-87.7,316.5-156.5,505.4-204.5,194.6-49.3,401.1-74.3,613.8-74.3,14.4,0,28.7.1,43,.3" fill="none" stroke="#ff8000" stroke-linecap="round" stroke-linejoin="round" stroke-width="12.37"/><path id="rainbow-red" d="M733.8,1080c280.9-188.1,689-306.4,1143.2-306.4,14.4,0,28.7.1,43,.3" fill="none" stroke="red" stroke-linecap="round" stroke-linejoin="round" stroke-width="12.37"/></g><g id="narwhal"><path id="narwhal-body" d="M1176.2,333.6c2.2,24.1,4.6,48.6,7.4,73.3,1.1,13.6,2.6,27.4,4.3,41.5.6,4.9,1.2,9.4,1.7,13.6l-14.1,16.1a168.8,168.8,0,0,0-22.6,44.6q-23.4,75.4,42.6,151.8c-1.9,13.4-2.3,46.2,14,66.8a246.9,246.9,0,0,0,24.7,26.6l26.9-32.4q68.4,52.2,198.1,92.5,64.6,20.6,115.6,30.1c7.5,32.3,24.3,53.2,50.5,63,13.6,5.3,25.9,7,37,5.2-1.3-18.2-7.8-34.6-19.5-49.4l-17.1-16.1c12.9-2.5,23.4-7.4,31.4-14.5s11.5-14.3,13.3-22.4q-38.9-26.5-69.9-15.8c-10.3,3.8-18,9.2-23,16.2q-113.6-38.4-161-141.8-23.9-51.6-25.9-114.2t-58.1-98.6q-55.9-36.1-98.3-21.3l-16.3-33.7-17.1-33.2Z" fill="#78a2b3" stroke="#fff" stroke-linecap="round" stroke-linejoin="round" stroke-width="12"/><path id="narwhal-eye" d="M1228.5,568.6a9.6,9.6,0,0,0,.1,8.6,9.8,9.8,0,0,0,5.3,6.9,11.9,11.9,0,0,0,9.3.2,10.7,10.7,0,0,0,6.2-5.6,12.5,12.5,0,0,0,.8-9,12.7,12.7,0,0,0-6.2-6.5,10.4,10.4,0,0,0-8.3-.5A11.7,11.7,0,0,0,1228.5,568.6Z" fill="#fff"/></g></svg>